{
  "accessors": [
    {
      "bufferView": 2,
      "componentType": 5126,
      "count": 4622,
      "max": [
        5.139334201812744,
        1.7010698318481445,
        6.928470134735107
      ],
      "min": [
        -1.6086945533752441,
        -1.7000672817230225,
        -0.8443381190299988
      ],
      "type": "VEC3"
    },
    {
      "bufferView": 2,
      "byteOffset": 55464,
      "componentType": 5126,
      "count": 4622,
      "max": [
        1.0,
        1.0,
        1.0
      ],
      "min": [
        -1.0,
        -1.0,
        -1.0
      ],
      "type": "VEC3"
    },
    {
      "bufferView": 1,
      "componentType": 5126,
      "count": 4622,
      "max": [
        1.0001131296157837,
        1.000000238418579
      ],
      "min": [
        -0.00011308996909065172,
        0.01000000536441803
      ],
      "type": "VEC2"
    },
    {
      "bufferView": 0,
      "componentType": 5125,
      "count": 24000,
      "type": "SCALAR"
    },
    {
      "bufferView": 2,
      "byteOffset": 110928,
      "componentType": 5126,
      "count": 230,
      "max": [
        5.04378080368042,
        1.5822783708572388,
        5.995051383972168
      ],
      "min": [
        1.8792155981063843,
        -1.5822854042053223,
        5.896308422088623
      ],
      "type": "VEC3"
    },
    {
      "bufferView": 2,
      "byteOffset": 113688,
      "componentType": 5126,
      "count": 230,
      "max": [
        0.26342397928237915,
        0.26342394948005676,
        -0.9646798372268677
      ],
      "min": [
        -0.2634223699569702,
        -0.2634239196777344,
        -1.0
      ],
      "type": "VEC3"
    },
    {
      "bufferView": 1,
      "byteOffset": 36976,
      "componentType": 5126,
      "count": 230,
      "max": [
        1.0,
        0.375
      ],
      "min": [
        0.0,
        0.0
      ],
      "type": "VEC2"
    },
    {
      "bufferView": 0,
      "byteOffset": 96000,
      "componentType": 5125,
      "count": 1056,
      "type": "SCALAR"
    },
    {
      "bufferView": 2,
      "byteOffset": 116448,
      "componentType": 5126,
      "count": 3912,
      "max": [
        4.777162075042725,
        1.6086945533752441,
        7.135376930236816
      ],
      "min": [
        -1.6086945533752441,
        -1.6086945533752441,
        -0.8443381190299988
      ],
      "type": "VEC3"
    },
    {
      "bufferView": 2,
      "byteOffset": 163392,
      "componentType": 5126,
      "count": 3912,
      "max": [
        1.0,
        1.0,
        1.0
      ],
      "min": [
        -1.0,
        -1.0,
        -0.9998989701271057
      ],
      "type": "VEC3"
    },
    {
      "bufferView": 1,
      "byteOffset": 38816,
      "componentType": 5126,
      "count": 3912,
      "max": [
        1.0001131296157837,
        1.000000238418579
      ],
      "min": [
        -0.00011308996909065172,
        0.01000000536441803
      ],
      "type": "VEC2"
    },
    {
      "bufferView": 0,
      "byteOffset": 100224,
      "componentType": 5125,
      "count": 20340,
      "type": "SCALAR"
    },
    {
      "bufferView": 2,
      "byteOffset": 210336,
      "componentType": 5126,
      "count": 428,
      "max": [
        5.007758140563965,
        1.1784087419509888,
        6.216668128967285
      ],
      "min": [
        2.6509382724761963,
        -1.1784120798110962,
        5.599941253662109
      ],
      "type": "VEC3"
    },
    {
      "bufferView": 2,
      "byteOffset": 215472,
      "componentType": 5126,
      "count": 428,
      "max": [
        1.0,
        1.0,
        0.9394845366477966
      ],
      "min": [
        -1.0,
        -1.0,
        -1.0
      ],
      "type": "VEC3"
    },
    {
      "bufferView": 1,
      "byteOffset": 70112,
      "componentType": 5126,
      "count": 428,
      "max": [
        1.0,
        0.6875001192092896
      ],
      "min": [
        0.0,
        0.0
      ],
      "type": "VEC2"
    },
    {
      "bufferView": 0,
      "byteOffset": 181584,
      "componentType": 5125,
      "count": 2208,
      "type": "SCALAR"
    },
    {
      "bufferView": 2,
      "byteOffset": 220608,
      "componentType": 5126,
      "count": 4461,
      "max": [
        5.495331764221191,
        1.7048590183258057,
        7.129131317138672
      ],
      "min": [
        -1.6086945533752441,
        -1.7048590183258057,
        -0.8443381190299988
      ],
      "type": "VEC3"
    },
    {
      "bufferView": 2,
      "byteOffset": 274140,
      "componentType": 5126,
      "count": 4461,
      "max": [
        1.0,
        1.0,
        1.0
      ],
      "min": [
        -1.0,
        -1.0,
        -1.0
      ],
      "type": "VEC3"
    },
    {
      "bufferView": 1,
      "byteOffset": 73536,
      "componentType": 5126,
      "count": 4461,
      "max": [
        1.0003831386566162,
        1.000000238418579
      ],
      "min": [
        -0.00038555407081730664,
        0.01000000536441803
      ],
      "type": "VEC2"
    },
    {
      "bufferView": 0,
      "byteOffset": 190416,
      "componentType": 5125,
      "count": 23604,
      "type": "SCALAR"
    },
    {
      "bufferView": 2,
      "byteOffset": 327672,
      "componentType": 5126,
      "count": 329,
      "max": [
        4.630305290222168,
        0.8415188789367676,
        5.865792751312256
      ],
      "min": [
        2.947265625,
        -0.8415217399597168,
        5.572521209716797
      ],
      "type": "VEC3"
    },
    {
      "bufferView": 2,
      "byteOffset": 331620,
      "componentType": 5126,
      "count": 329,
      "max": [
        1.0,
        1.0,
        1.0
      ],
      "min": [
        -1.0,
        -1.0,
        0.0
      ],
      "type": "VEC3"
    },
    {
      "bufferView": 1,
      "byteOffset": 109224,
      "componentType": 5126,
      "count": 329,
      "max": [
        1.0,
        1.0
      ],
      "min": [
        0.0,
        0.5
      ],
      "type": "VEC2"
    },
    {
      "bufferView": 0,
      "byteOffset": 284832,
      "componentType": 5125,
      "count": 1632,
      "type": "SCALAR"
    },
    {
      "bufferView": 2,
      "byteOffset": 335568,
      "componentType": 5126,
      "count": 2686,
      "max": [
        1.6086945533752441,
        1.6086945533752441,
        6.727375030517578
      ],
      "min": [
        -1.6086945533752441,
        -1.6086945533752441,
        -0.8443381190299988
      ],
      "type": "VEC3"
    },
    {
      "bufferView": 2,
      "byteOffset": 367800,
      "componentType": 5126,
      "count": 2686,
      "max": [
        1.0,
        1.0,
        1.0
      ],
      "min": [
        -1.0,
        -1.0,
        -1.0
      ],
      "type": "VEC3"
    },
    {
      "bufferView": 1,
      "byteOffset": 111856,
      "componentType": 5126,
      "count": 2686,
      "max": [
        1.0001131296157837,
        1.000000238418579
      ],
      "min": [
        -0.00011308996909065172,
        0.0
      ],
      "type": "VEC2"
    },
    {
      "bufferView": 0,
      "byteOffset": 291360,
      "componentType": 5125,
      "count": 12528,
      "type": "SCALAR"
    },
    {
      "bufferView": 2,
      "byteOffset": 400032,
      "componentType": 5126,
      "count": 16,
      "max": [
        1.3811463117599487,
        1.4650202989578247,
        6.319797039031982
      ],
      "min": [
        -1.379339337348938,
        -1.4650253057479858,
        5.545742511749268
      ],
      "type": "VEC3"
    },
    {
      "bufferView": 2,
      "byteOffset": 400224,
      "componentType": 5126,
      "count": 16,
      "max": [
        0.0,
        0.830260157585144,
        0.49754929542541504
      ],
      "min": [
        -0.8762107491493225,
        -0.8302599191665649,
        -0.5573763847351074
      ],
      "type": "VEC3"
    },
    {
      "bufferView": 1,
      "byteOffset": 133344,
      "componentType": 5126,
      "count": 16,
      "max": [
        0.0,
        0.0
      ],
      "min": [
        0.0,
        0.0
      ],
      "type": "VEC2"
    },
    {
      "bufferView": 0,
      "byteOffset": 341472,
      "componentType": 5125,
      "count": 24,
      "type": "SCALAR"
    },
    {
      "bufferView": 2,
      "byteOffset": 400416,
      "componentType": 5126,
      "count": 2374,
      "max": [
        1.6086945533752441,
        1.6086945533752441,
        5.443715572357178
      ],
      "min": [
        -1.6086945533752441,
        -1.6086945533752441,
        -0.8443381190299988
      ],
      "type": "VEC3"
    },
    {
      "bufferView": 2,
      "byteOffset": 428904,
      "componentType": 5126,
      "count": 2374,
      "max": [
        1.0,
        1.0,
        0.9984832406044006
      ],
      "min": [
        -1.0,
        -1.0,
        -0.9876720905303955
      ],
      "type": "VEC3"
    },
    {
      "bufferView": 1,
      "byteOffset": 133472,
      "componentType": 5126,
      "count": 2374,
      "max": [
        1.0001131296157837,
        1.000000238418579
      ],
      "min": [
        -0.00011308996909065172,
        0.01000000536441803
      ],
      "type": "VEC2"
    },
    {
      "bufferView": 0,
      "byteOffset": 341568,
      "componentType": 5125,
      "count": 12852,
      "type": "SCALAR"
    },
    {
      "bufferView": 2,
      "byteOffset": 457392,
      "componentType": 5126,
      "count": 461,
      "max": [
        1.6038867235183716,
        1.612281084060669,
        6.312022686004639
      ],
      "min": [
        -1.620676875114441,
        -1.61228346824646,
        5.3722662925720215
      ],
      "type": "VEC3"
    },
    {
      "bufferView": 2,
      "byteOffset": 462924,
      "componentType": 5126,
      "count": 461,
      "max": [
        1.0,
        1.0,
        1.0
      ],
      "min": [
        -1.0,
        -1.0,
        -0.9675430059432983
      ],
      "type": "VEC3"
    },
    {
      "bufferView": 1,
      "byteOffset": 152464,
      "componentType": 5126,
      "count": 461,
      "max": [
        1.0,
        1.0
      ],
      "min": [
        0.0,
        0.18749982118606567
      ],
      "type": "VEC2"
    },
    {
      "bufferView": 0,
      "byteOffset": 392976,
      "componentType": 5125,
      "count": 2400,
      "type": "SCALAR"
    },
    {
      "bufferView": 2,
      "byteOffset": 468456,
      "componentType": 5126,
      "count": 2605,
      "max": [
        9.651090621948242,
        1.5506030321121216,
        8.137687683105469
      ],
      "min": [
        -1.5347964763641357,
        -1.5506030321121216,
        -1.2502727508544922
      ],
      "type": "VEC3"
    },
    {
      "bufferView": 2,
      "byteOffset": 499716,
      "componentType": 5126,
      "count": 2605,
      "max": [
        1.0,
        1.0,
        0.9999949336051941
      ],
      "min": [
        -1.0,
        -1.0,
        -1.0
      ],
      "type": "VEC3"
    },
    {
      "bufferView": 1,
      "byteOffset": 156152,
      "componentType": 5126,
      "count": 2605,
      "max": [
        1.0,
        1.0000001192092896
      ],
      "min": [
        -0.0016006248770281672,
        0.0
      ],
      "type": "VEC2"
    },
    {
      "bufferView": 0,
      "byteOffset": 402576,
      "componentType": 5125,
      "count": 11232,
      "type": "SCALAR"
    },
    {
      "bufferView": 2,
      "byteOffset": 530976,
      "componentType": 5126,
      "count": 56,
      "max": [
        9.384584426879883,
        0.6463460922241211,
        7.842770576477051
      ],
      "min": [
        6.0364251136779785,
        -0.6463534235954285,
        7.503793716430664
      ],
      "type": "VEC3"
    },
    {
      "bufferView": 2,
      "byteOffset": 531648,
      "componentType": 5126,
      "count": 56,
      "max": [
        0.9866397380828857,
        1.0,
        0.9962019920349121
      ],
      "min": [
        -0.6192618012428284,
        -1.0,
        -0.9919115900993347
      ],
      "type": "VEC3"
    },
    {
      "bufferView": 1,
      "byteOffset": 176992,
      "componentType": 5126,
      "count": 56,
      "max": [
        0.875,
        1.0
      ],
      "min": [
        0.125,
        0.0
      ],
      "type": "VEC2"
    },
    {
      "bufferView": 0,
      "byteOffset": 447504,
      "componentType": 5125,
      "count": 132,
      "type": "SCALAR"
    },
    {
      "bufferView": 2,
      "byteOffset": 532320,
      "componentType": 5126,
      "count": 4,
      "max": [
        1.0,
        1.0,
        0.0
      ],
      "min": [
        -1.0,
        -1.0,
        0.0
      ],
      "type": "VEC3"
    },
    {
      "bufferView": 2,
      "byteOffset": 532368,
      "componentType": 5126,
      "count": 4,
      "max": [
        0.0,
        0.0,
        1.0
      ],
      "min": [
        0.0,
        0.0,
        1.0
      ],
      "type": "VEC3"
    },
    {
      "bufferView": 1,
      "byteOffset": 177440,
      "componentType": 5126,
      "count": 4,
      "max": [
        1.0,
        1.0
      ],
      "min": [
        0.0,
        0.0
      ],
      "type": "VEC2"
    },
    {
      "bufferView": 0,
      "byteOffset": 448032,
      "componentType": 5125,
      "count": 6,
      "type": "SCALAR"
    }
  ],
  "asset": {
    "extras": {
      "author": "woulfric (https://sketchfab.com/woulfric007)",
      "license": "CC-BY-4.0 (http://creativecommons.org/licenses/by/4.0/)",
      "source": "https://sketchfab.com/3d-models/low-poly-street-lamps-collection-2c94ef2518904a219acea289e8fda159",
      "title": "low poly street lamps collection"
    },
    "generator": "Sketchfab-15.10.0",
    "version": "2.0"
  },
  "bufferViews": [
    {
      "buffer": 0,
      "byteLength": 448056,
      "name": "floatBufferViews",
      "target": 34963
    },
    {
      "buffer": 0,
      "byteLength": 177472,
      "byteOffset": 448056,
      "byteStride": 8,
      "name": "floatBufferViews",
      "target": 34962
    },
    {
      "buffer": 0,
      "byteLength": 532416,
      "byteOffset": 625528,
      "byteStride": 12,
      "name": "floatBufferViews",
      "target": 34962
    }
  ],
  "buffers": [
    {
      "byteLength": 1157944,
      "uri": "scene.bin"
    }
  ],
  "extensionsUsed": [
    "KHR_materials_emissive_strength"
  ],
  "materials": [
    {
      "doubleSided": true,
      "name": "Plane__0",
      "pbrMetallicRoughness": {
        "metallicFactor": 0.0,
        "roughnessFactor": 0.6
      }
    },
    {
      "doubleSided": true,
      "name": "lamp",
      "pbrMetallicRoughness": {
        "baseColorFactor": [
          0.0536503,
          0.0536503,
          0.0536503,
          1.0
        ],
        "metallicFactor": 0.0,
        "roughnessFactor": 0.9871605552482379
      }
    },
    {
      "doubleSided": true,
      "emissiveFactor": [
        0.828292110066717,
        0.541044387992161,
        0.1157943962608672
      ],
      "extensions": {
        "KHR_materials_emissive_strength": {
          "emissiveStrength": 5.0
        }
      },
      "name": "light",
      "pbrMetallicRoughness": {
        "baseColorFactor": [
          0.8,
          0.8,
          0.8,
          1.0
        ],
        "metallicFactor": 0.0,
        "roughnessFactor": 0.8211145618000169
      }
    }
  ],
  "meshes": [
    {
      "name": "Cylinder.001_lamp_0",
      "primitives": [
        {
          "attributes": {
            "NORMAL": 1,
            "POSITION": 0,
            "TEXCOORD_0": 2
          },
          "indices": 3,
          "material": 1,
          "mode": 4
        }
      ]
    },
    {
      "name": "Cylinder.001_light_0",
      "primitives": [
        {
          "attributes": {
            "NORMAL": 5,
            "POSITION": 4,
            "TEXCOORD_0": 6
          },
          "indices": 7,
          "material": 2,
          "mode": 4
        }
      ]
    },
    {
      "name": "Cylinder.002_lamp_0",
      "primitives": [
        {
          "attributes": {
            "NORMAL": 9,
            "POSITION": 8,
            "TEXCOORD_0": 10
          },
          "indices": 11,
          "material": 1,
          "mode": 4
        }
      ]
    },
    {
      "name": "Cylinder.002_light_0",
      "primitives": [
        {
          "attributes": {
            "NORMAL": 13,
            "POSITION": 12,
            "TEXCOORD_0": 14
          },
          "indices": 15,
          "material": 2,
          "mode": 4
        }
      ]
    },
    {
      "name": "Cylinder.003_lamp_0",
      "primitives": [
        {
          "attributes": {
            "NORMAL": 17,
            "POSITION": 16,
            "TEXCOORD_0": 18
          },
          "indices": 19,
          "material": 1,
          "mode": 4
        }
      ]
    },
    {
      "name": "Cylinder.003_light_0",
      "primitives": [
        {
          "attributes": {
            "NORMAL": 21,
            "POSITION": 20,
            "TEXCOORD_0": 22
          },
          "indices": 23,
          "material": 2,
          "mode": 4
        }
      ]
    },
    {
      "name": "Cylinder.004_lamp_0",
      "primitives": [
        {
          "attributes": {
            "NORMAL": 25,
            "POSITION": 24,
            "TEXCOORD_0": 26
          },
          "indices": 27,
          "material": 1,
          "mode": 4
        }
      ]
    },
    {
      "name": "Cylinder.004_light_0",
      "primitives": [
        {
          "attributes": {
            "NORMAL": 29,
            "POSITION": 28,
            "TEXCOORD_0": 30
          },
          "indices": 31,
          "material": 2,
          "mode": 4
        }
      ]
    },
    {
      "name": "Cylinder.005_lamp_0",
      "primitives": [
        {
          "attributes": {
            "NORMAL": 33,
            "POSITION": 32,
            "TEXCOORD_0": 34
          },
          "indices": 35,
          "material": 1,
          "mode": 4
        }
      ]
    },
    {
      "name": "Cylinder.005_light_0",
      "primitives": [
        {
          "attributes": {
            "NORMAL": 37,
            "POSITION": 36,
            "TEXCOORD_0": 38
          },
          "indices": 39,
          "material": 2,
          "mode": 4
        }
      ]
    },
    {
      "name": "Cylinder_lamp_0",
      "primitives": [
        {
          "attributes": {
            "NORMAL": 41,
            "POSITION": 40,
            "TEXCOORD_0": 42
          },
          "indices": 43,
          "material": 1,
          "mode": 4
        }
      ]
    },
    {
      "name": "Cylinder_light_0",
      "primitives": [
        {
          "attributes": {
            "NORMAL": 45,
            "POSITION": 44,
            "TEXCOORD_0": 46
          },
          "indices": 47,
          "material": 2,
          "mode": 4
        }
      ]
    },
    {
      "name": "Plane__0",
      "primitives": [
        {
          "attributes": {
            "NORMAL": 49,
            "POSITION": 48,
            "TEXCOORD_0": 50
          },
          "indices": 51,
          "material": 0,
          "mode": 4
        }
      ]
    }
  ],
  "nodes": [
    {
      "children": [
        1
      ],
      "matrix": [
        1.0,
        0.0,
        0.0,
        0.0,
        0.0,
        2.220446049250313e-16,
        -1.0,
        0.0,
        0.0,
        1.0,
        2.220446049250313e-16,
        0.0,
        0.0,
        0.0,
        0.0,
        1.0
      ],
      "name": "Sketchfab_model"
    },
    {
      "children": [
        2
      ],
      "matrix": [
        0.009999999776482582,
        0.0,
        0.0,
        0.0,
        0.0,
        0.0,
        0.009999999776482582,
        0.0,
        0.0,
        -0.009999999776482582,
        0.0,
        0.0,
        0.0,
        0.0,
        0.0,
        1.0
      ],
      "name": "819dc7c7a2c04bc0b1a226e8941ef446.fbx"
    },
    {
      "children": [
        3,
        6,
        9,
        12,
        15,
        18,
        21
      ],
      "name": "RootNode"
    },
    {
      "children": [
        4,
        5
      ],
      "matrix": [
        9.62197208404541,
        0.0,
        0.0,
        0.0,
        0.0,
        -1.5676182290219142e-06,
        -9.621972084045282,
        0.0,
        0.0,
        30.233589172362883,
        -4.925676888414944e-06,
        0.0,
        224.41561889648438,
        25.52271270751953,
        3.4292017971893074e-06,
        1.0
      ],
      "name": "Cylinder.001"
    },
    {
      "mesh": 0,
      "name": "Cylinder.001_lamp_0"
    },
    {
      "mesh": 1,
      "name": "Cylinder.001_light_0"
    },
    {
      "children": [
        7,
        8
      ],
      "matrix": [
        9.62197208404541,
        0.0,
        0.0,
        0.0,
        0.0,
        -1.5676182290219142e-06,
        -9.621972084045282,
        0.0,
        0.0,
        30.233589172362883,
        -4.925676888414944e-06,
        0.0,
        116.4336929321289,
        25.52271270751953,
        3.4292017971893074e-06,
        1.0
      ],
      "name": "Cylinder.002"
    },
    {
      "mesh": 2,
      "name": "Cylinder.002_lamp_0"
    },
    {
      "mesh": 3,
      "name": "Cylinder.002_light_0"
    },
    {
      "children": [
        10,
        11
      ],
      "matrix": [
        9.62197208404541,
        0.0,
        0.0,
        0.0,
        0.0,
        -1.5676182290219142e-06,
        -9.621972084045282,
        0.0,
        0.0,
        30.233589172362883,
        -4.925676888414944e-06,
        0.0,
        13.83256721496582,
        25.52271270751953,
        3.4292017971893074e-06,
        1.0
      ],
      "name": "Cylinder.003"
    },
    {
      "mesh": 4,
      "name": "Cylinder.003_lamp_0"
    },
    {
      "mesh": 5,
      "name": "Cylinder.003_light_0"
    },
    {
      "children": [
        13,
        14
      ],
      "matrix": [
        9.62197208404541,
        0.0,
        0.0,
        0.0,
        -0.0,
        -1.5676182290219142e-06,
        -9.621972084045282,
        0.0,
        0.0,
        30.233589172362883,
        -4.925676888414944e-06,
        0.0,
        -80.07263946533203,
        25.52271270751953,
        3.4292017971893074e-06,
        1.0
      ],
      "name": "Cylinder.004"
    },
    {
      "mesh": 6,
      "name": "Cylinder.004_lamp_0"
    },
    {
      "mesh": 7,
      "name": "Cylinder.004_light_0"
    },
    {
      "children": [
        16,
        17
      ],
      "matrix": [
        9.62197208404541,
        0.0,
        0.0,
        0.0,
        -0.0,
        -1.5676182290219142e-06,
        -9.621972084045282,
        0.0,
        0.0,
        30.233589172362883,
        -4.925676888414944e-06,
        0.0,
        -170.38339233398438,
        25.52271270751953,
        3.4292017971893074e-06,
        1.0
      ],
      "name": "Cylinder.005"
    },
    {
      "mesh": 8,
      "name": "Cylinder.005_lamp_0"
    },
    {
      "mesh": 9,
      "name": "Cylinder.005_light_0"
    },
    {
      "children": [
        19,
        20
      ],
      "matrix": [
        7.7107439041137695,
        0.0,
        0.0,
        0.0,
        -0.0,
        -1.256239635474638e-06,
        -7.710743904113667,
        0.0,
        0.0,
        27.072116851806282,
        -4.410607670071386e-06,
        0.0,
        -263.2981872558594,
        33.61968231201172,
        1.9214558051317e-06,
        1.0
      ],
      "name": "Cylinder"
    },
    {
      "mesh": 10,
      "name": "Cylinder_lamp_0"
    },
    {
      "mesh": 11,
      "name": "Cylinder_light_0"
    },
    {
      "children": [
        22
      ],
      "matrix": [
        503.4794921875,
        0.0,
        0.0,
        0.0,
        0.0,
        -5.787145586213744e-05,
        -355.21246337890153,
        0.0,
        0.0,
        579.0217285156174,
        -9.433461339239819e-05,
        0.0,
        0.0,
        0.0,
        0.0,
        1.0
      ],
      "name": "Plane"
    },
    {
      "mesh": 12,
      "name": "Plane__0"
    }
  ],
  "scene": 0,
  "scenes": [
    {
      "name": "Sketchfab_Scene",
      "nodes": [
        0
      ]
    }
  ]
}
